<!-- Generator: Adobe Illustrator 19.2.0, SVG Export Plug-In  -->
<svg version="1.1"
	 xmlns="http://www.w3.org/2000/svg" xmlns:xlink="http://www.w3.org/1999/xlink" xmlns:a="http://ns.adobe.com/AdobeSVGViewerExtensions/3.0/"
	 x="0px" y="0px" width="245.4px" height="128.7px" viewBox="0 0 245.4 128.7" style="enable-background:new 0 0 245.4 128.7;"
	 xml:space="preserve">
<style type="text/css">
	.st0{fill:#FFEB00;}
	.st1{fill:#C6A828;}
	.st2{fill:#A88F26;}
	.st3{fill:#F9F9F9;}
	.st4{fill:none;stroke:#C6A828;stroke-width:1.7387;stroke-linecap:round;stroke-linejoin:round;stroke-miterlimit:10;}
	.st5{fill:#A89800;}
	.st6{fill:#EAD168;}
</style>
<defs>
</defs>
<polygon id="XMLID_16_" class="st0" points="224.9,119.4 224.9,115.6 229.6,115.6 245.4,0 0,0 0,28.4 185.6,80.5 190.3,115.6 
	196,115.6 196,119.4 190.8,119.4 192.1,128.7 227.8,128.7 229.1,119.4 "/>
<rect id="XMLID_15_" x="196" y="115.6" class="st1" width="28.9" height="3.8"/>
<rect id="XMLID_14_" x="210.8" y="115.6" class="st2" width="14.1" height="3.8"/>
<g id="XMLID_11_">
	<circle id="XMLID_13_" class="st1" cx="199.8" cy="89.4" r="4"/>
	<circle id="XMLID_12_" class="st3" cx="199.8" cy="89.4" r="2.5"/>
</g>
<g id="XMLID_8_">
	<circle id="XMLID_10_" class="st1" cx="199.8" cy="101" r="4"/>
	<circle id="XMLID_9_" class="st3" cx="199.8" cy="101" r="2.5"/>
</g>
<path id="XMLID_7_" class="st4" d="M171,57.6l-39.4-9c-3.7-0.9-7.5,1.5-8.3,5.2l-1.7,7.6l52.3,14.9l2.4-10.4
	C177.1,62.2,174.7,58.4,171,57.6z"/>
<path id="XMLID_6_" class="st4" d="M159.1,60.1c-0.1,0.4-0.5,0.6-0.8,0.5l-17.6-3.6c-0.4-0.1-0.6-0.5-0.5-0.8l0,0
	c0.1-0.4,0.5-0.6,0.8-0.5l17.6,3.6C158.9,59.4,159.1,59.8,159.1,60.1L159.1,60.1z"/>
<polygon id="XMLID_5_" class="st5" points="229.6,115.6 245.4,0 222.4,0 217,115.6 "/>
<polygon id="XMLID_4_" class="st5" points="229.1,119.4 227.8,128.7 217,128.7 217,119.4 "/>
<path id="XMLID_3_" class="st6" d="M230.2,40.4c0,0.8-0.7,1.5-1.5,1.5H210c-0.8,0-1.5-0.7-1.5-1.5l0,0c0-0.8,0.7-1.5,1.5-1.5h18.7
	C229.5,38.9,230.2,39.6,230.2,40.4L230.2,40.4z"/>
<path id="XMLID_2_" class="st6" d="M230.2,48.4c0,0.8-0.7,1.5-1.5,1.5H210c-0.8,0-1.5-0.7-1.5-1.5l0,0c0-0.8,0.7-1.5,1.5-1.5h18.7
	C229.5,46.9,230.2,47.6,230.2,48.4L230.2,48.4z"/>
<path id="XMLID_1_" class="st6" d="M230.2,56.4c0,0.8-0.7,1.5-1.5,1.5H210c-0.8,0-1.5-0.7-1.5-1.5l0,0c0-0.8,0.7-1.5,1.5-1.5h18.7
	C229.5,54.9,230.2,55.5,230.2,56.4L230.2,56.4z"/>
</svg>
