<!-- Generator: Adobe Illustrator 19.2.0, SVG Export Plug-In  -->
<svg version="1.1"
	 xmlns="http://www.w3.org/2000/svg" xmlns:xlink="http://www.w3.org/1999/xlink" xmlns:a="http://ns.adobe.com/AdobeSVGViewerExtensions/3.0/"
	 x="0px" y="0px" width="245.4px" height="294.9px" viewBox="0 0 245.4 294.9" style="enable-background:new 0 0 245.4 294.9;"
	 xml:space="preserve">
<style type="text/css">
	.st0{fill:#A9A9A9;}
	.st1{fill:#848484;}
	.st2{fill:#D1D1D1;}
	.st3{fill:#6E6E6E;}
	.st4{fill:#8E8E8E;}
	.st5{fill:#EAEAEA;}
	.st6{fill:#FFEB00;}
	.st7{fill:#C6A828;}
	.st8{fill:#A88F26;}
	.st9{fill:#F9F9F9;}
	.st10{fill:none;stroke:#C6A828;stroke-width:1.7387;stroke-linecap:round;stroke-linejoin:round;stroke-miterlimit:10;}
	.st11{fill:#A89800;}
	.st12{fill:#EAD168;}
</style>
<defs>
</defs>
<polygon id="XMLID_25_" points="219.4,282.8 225.2,284.3 227.1,282.8 228,269.6 217.3,265.5 "/>
<rect id="XMLID_24_" x="201.8" y="128.7" class="st0" width="16.3" height="152.1"/>
<polygon id="XMLID_23_" class="st1" points="220.2,263.4 223,282.8 210,294.9 196.9,282.8 199.7,263.4 "/>
<rect id="XMLID_22_" x="203.9" y="128.7" class="st2" width="3.5" height="134.7"/>
<rect id="XMLID_21_" x="210" y="128.7" class="st2" width="1.7" height="134.7"/>
<polygon id="XMLID_20_" class="st3" points="213.3,263.4 214.6,279.1 210,294.9 223,282.8 220.2,263.4 "/>
<circle id="XMLID_19_" class="st4" cx="210" cy="276.4" r="5.7"/>
<circle id="XMLID_18_" class="st5" cx="210" cy="276.4" r="4.3"/>
<path id="XMLID_17_" class="st4" d="M205.2,276.4c0,0.3,0,0.5,0.1,0.8h9.3c0.1-0.3,0.1-0.5,0.1-0.8c0-0.3,0-0.5-0.1-0.8h-9.3
	C205.3,275.9,205.2,276.2,205.2,276.4z"/>
<polygon id="XMLID_16_" class="st6" points="224.9,119.4 224.9,115.6 229.6,115.6 245.4,0 0,0 0,28.4 185.6,80.5 190.3,115.6 
	196,115.6 196,119.4 190.8,119.4 192.1,128.7 227.8,128.7 229.1,119.4 "/>
<rect id="XMLID_15_" x="196" y="115.6" class="st7" width="28.9" height="3.8"/>
<rect id="XMLID_14_" x="210.8" y="115.6" class="st8" width="14.1" height="3.8"/>
<g id="XMLID_11_">
	<circle id="XMLID_13_" class="st7" cx="199.8" cy="89.4" r="4"/>
	<circle id="XMLID_12_" class="st9" cx="199.8" cy="89.4" r="2.5"/>
</g>
<g id="XMLID_8_">
	<circle id="XMLID_10_" class="st7" cx="199.8" cy="101" r="4"/>
	<circle id="XMLID_9_" class="st9" cx="199.8" cy="101" r="2.5"/>
</g>
<path id="XMLID_7_" class="st10" d="M171,57.6l-39.4-9c-3.7-0.9-7.5,1.5-8.3,5.2l-1.7,7.6l52.3,14.9l2.4-10.4
	C177.1,62.2,174.7,58.4,171,57.6z"/>
<path id="XMLID_6_" class="st10" d="M159.1,60.1c-0.1,0.4-0.5,0.6-0.8,0.5l-17.6-3.6c-0.4-0.1-0.6-0.5-0.5-0.8l0,0
	c0.1-0.4,0.5-0.6,0.8-0.5l17.6,3.6C158.9,59.4,159.1,59.8,159.1,60.1L159.1,60.1z"/>
<polygon id="XMLID_5_" class="st11" points="229.6,115.6 245.4,0 222.4,0 217,115.6 "/>
<polygon id="XMLID_4_" class="st11" points="229.1,119.4 227.8,128.7 217,128.7 217,119.4 "/>
<path id="XMLID_3_" class="st12" d="M230.2,40.4c0,0.8-0.7,1.5-1.5,1.5H210c-0.8,0-1.5-0.7-1.5-1.5l0,0c0-0.8,0.7-1.5,1.5-1.5h18.7
	C229.5,38.9,230.2,39.6,230.2,40.4L230.2,40.4z"/>
<path id="XMLID_2_" class="st12" d="M230.2,48.4c0,0.8-0.7,1.5-1.5,1.5H210c-0.8,0-1.5-0.7-1.5-1.5l0,0c0-0.8,0.7-1.5,1.5-1.5h18.7
	C229.5,46.9,230.2,47.6,230.2,48.4L230.2,48.4z"/>
<path id="XMLID_1_" class="st12" d="M230.2,56.4c0,0.8-0.7,1.5-1.5,1.5H210c-0.8,0-1.5-0.7-1.5-1.5l0,0c0-0.8,0.7-1.5,1.5-1.5h18.7
	C229.5,54.9,230.2,55.5,230.2,56.4L230.2,56.4z"/>
</svg>
