<!-- Generator: Adobe Illustrator 19.2.0, SVG Export Plug-In  -->
<svg version="1.1"
	 xmlns="http://www.w3.org/2000/svg" xmlns:xlink="http://www.w3.org/1999/xlink" xmlns:a="http://ns.adobe.com/AdobeSVGViewerExtensions/3.0/"
	 x="0px" y="0px" width="26.2px" height="166.2px" viewBox="0 0 26.2 166.2" style="enable-background:new 0 0 26.2 166.2;"
	 xml:space="preserve">
<style type="text/css">
	.st0{fill:#A9A9A9;}
	.st1{fill:#848484;}
	.st2{fill:#D1D1D1;}
	.st3{fill:#6E6E6E;}
	.st4{fill:#8E8E8E;}
	.st5{fill:#EAEAEA;}
</style>
<defs>
</defs>
<rect id="XMLID_8_" x="4.9" class="st0" width="16.3" height="152.1"/>
<polygon id="XMLID_7_" class="st1" points="23.3,134.7 26.2,154.2 13.1,166.2 0,154.2 2.8,134.7 "/>
<rect id="XMLID_6_" x="7" class="st2" width="3.5" height="134.7"/>
<rect id="XMLID_5_" x="13.1" class="st2" width="1.7" height="134.7"/>
<polygon id="XMLID_4_" class="st3" points="16.4,134.7 17.7,150.5 13.1,166.2 26.2,154.2 23.3,134.7 "/>
<circle id="XMLID_3_" class="st4" cx="13.1" cy="147.8" r="5.7"/>
<circle id="XMLID_2_" class="st5" cx="13.1" cy="147.8" r="4.3"/>
<path id="XMLID_1_" class="st4" d="M8.4,147.8c0,0.3,0,0.5,0.1,0.8h9.3c0.1-0.3,0.1-0.5,0.1-0.8c0-0.3,0-0.5-0.1-0.8H8.4
	C8.4,147.3,8.4,147.5,8.4,147.8z"/>
</svg>
