<!-- Generator: Adobe Illustrator 19.2.0, SVG Export Plug-In  -->
<svg version="1.1"
	 xmlns="http://www.w3.org/2000/svg" xmlns:xlink="http://www.w3.org/1999/xlink" xmlns:a="http://ns.adobe.com/AdobeSVGViewerExtensions/3.0/"
	 x="0px" y="0px" width="489.5px" height="168.4px" viewBox="0 0 489.5 168.4" style="enable-background:new 0 0 489.5 168.4;"
	 xml:space="preserve">
<style type="text/css">
	.st0{fill:#FFFF38;}
</style>
<defs>
</defs>
<g id="XMLID_1_">
	<path id="XMLID_8_" class="st0" d="M252.8,76.3c0,4.5-3.6,8.1-8.1,8.1l0,0c-4.5,0-8.1-3.6-8.1-8.1V8.1c0-4.5,3.6-8.1,8.1-8.1l0,0
		c4.4,0,8.1,3.6,8.1,8.1V76.3z"/>
	<path id="XMLID_7_" class="st0" d="M39.3,154.8c2.9,3.3,2.6,8.4-0.7,11.4l0,0c-3.3,2.9-8.4,2.6-11.4-0.7L2,138.7
		c-2.9-3.3-2.6-8.4,0.7-11.4l0,0c3.3-2.9,8.4-2.6,11.4,0.7L39.3,154.8z"/>
	<path id="XMLID_6_" class="st0" d="M102.4,113.5c2.1,3.9,0.6,8.8-3.4,10.9l0,0c-3.9,2.1-8.8,0.6-10.9-3.4L63.9,74.1
		c-2.1-3.9-0.6-8.8,3.4-10.9l0,0c3.9-2.1,8.8-0.6,10.9,3.4L102.4,113.5z"/>
	<path id="XMLID_5_" class="st0" d="M169.7,89.1c1.1,4.3-1.4,8.7-5.7,9.9l0,0c-4.3,1.2-8.7-1.4-9.9-5.7l-17.6-65.9
		c-1.2-4.3,1.4-8.7,5.7-9.9l0,0c4.3-1.2,8.7,1.4,9.9,5.7L169.7,89.1z"/>
	<path id="XMLID_4_" class="st0" d="M450.2,155c-2.9,3.3-2.6,8.4,0.7,11.4l0,0c3.3,2.9,8.4,2.6,11.4-0.7l25.2-26.7
		c2.9-3.3,2.6-8.4-0.7-11.4l0,0c-3.3-2.9-8.4-2.6-11.4,0.7L450.2,155z"/>
	<path id="XMLID_3_" class="st0" d="M387,113.7c-2.1,3.9-0.6,8.8,3.4,10.9l0,0c3.9,2.1,8.8,0.6,10.9-3.4l24.3-46.9
		c2.1-3.9,0.6-8.8-3.4-10.9l0,0c-3.9-2.1-8.8-0.6-10.9,3.4L387,113.7z"/>
	<path id="XMLID_2_" class="st0" d="M319.7,89.3c-1.1,4.3,1.4,8.7,5.7,9.9l0,0c4.3,1.2,8.7-1.4,9.9-5.7l17.6-65.9
		c1.2-4.3-1.4-8.7-5.7-9.9l0,0c-4.3-1.2-8.7,1.4-9.9,5.7L319.7,89.3z"/>
</g>
</svg>
