<!-- Generator: Adobe Illustrator 19.2.0, SVG Export Plug-In  -->
<svg version="1.1"
	 xmlns="http://www.w3.org/2000/svg" xmlns:xlink="http://www.w3.org/1999/xlink" xmlns:a="http://ns.adobe.com/AdobeSVGViewerExtensions/3.0/"
	 x="0px" y="0px" width="305.7px" height="104.4px" viewBox="0 0 305.7 104.4" style="enable-background:new 0 0 305.7 104.4;"
	 xml:space="preserve">
<style type="text/css">
	.st0{fill:#FFFF38;}
</style>
<defs>
</defs>
<path id="XMLID_7_" class="st0" d="M160.7,48.5c0,2.8-2.3,5.1-5.1,5.1l0,0c-2.8,0-5.1-2.3-5.1-5.1V5.1c0-2.8,2.3-5.1,5.1-5.1l0,0
	c2.8,0,5.1,2.3,5.1,5.1V48.5z"/>
<path id="XMLID_6_" class="st0" d="M208,55.3c-0.7,2.8-3.4,4.4-6.2,3.8l0,0c-2.8-0.7-4.4-3.4-3.8-6.2l10.1-42.2
	c0.7-2.8,3.4-4.4,6.2-3.8l0,0c2.8,0.7,4.4,3.4,3.8,6.2L208,55.3z"/>
<path id="XMLID_5_" class="st0" d="M252.6,73c-1.3,2.5-4.4,3.5-6.9,2.2l0,0c-2.5-1.3-3.5-4.4-2.2-6.9l16.2-31.1
	c1.3-2.5,4.4-3.5,6.9-2.2l0,0c2.5,1.3,3.5,4.4,2.2,6.9L252.6,73z"/>
<path id="XMLID_4_" class="st0" d="M289.9,99.1c-1.8,2.2-5,2.5-7.2,0.6l0,0c-2.2-1.8-2.5-5-0.6-7.2l14.7-17.7c1.8-2.2,5-2.5,7.2-0.6
	l0,0c2.2,1.8,2.5,5,0.6,7.2L289.9,99.1z"/>
<path id="XMLID_3_" class="st0" d="M25,95.9c1.9,2.1,1.7,5.4-0.5,7.2l0,0c-2.1,1.9-5.4,1.7-7.2-0.5l-16-17c-1.9-2.1-1.7-5.4,0.5-7.2
	l0,0c2.1-1.9,5.4-1.7,7.2,0.5L25,95.9z"/>
<path id="XMLID_2_" class="st0" d="M65.1,69.6c1.3,2.5,0.4,5.6-2.1,6.9l0,0c-2.5,1.3-5.6,0.4-6.9-2.1L40.6,44.6
	c-1.3-2.5-0.4-5.6,2.1-6.9l0,0c2.5-1.3,5.6-0.4,6.9,2.1L65.1,69.6z"/>
<path id="XMLID_1_" class="st0" d="M107.9,54.1c0.7,2.7-0.9,5.5-3.6,6.3l0,0c-2.7,0.7-5.5-0.9-6.3-3.6L86.8,14.9
	c-0.7-2.7,0.9-5.5,3.6-6.3l0,0c2.7-0.7,5.5,0.9,6.3,3.6L107.9,54.1z"/>
</svg>
