<!-- Generator: Adobe Illustrator 19.2.0, SVG Export Plug-In  -->
<svg version="1.1"
	 xmlns="http://www.w3.org/2000/svg" xmlns:xlink="http://www.w3.org/1999/xlink" xmlns:a="http://ns.adobe.com/AdobeSVGViewerExtensions/3.0/"
	 x="0px" y="0px" width="131.6px" height="114.8px" viewBox="0 0 131.6 114.8" style="enable-background:new 0 0 131.6 114.8;"
	 xml:space="preserve">
<style type="text/css">
	.st0{fill:#FFFF38;}
</style>
<defs>
</defs>
<path id="XMLID_3_" class="st0" d="M12.3,59.2c-0.8,3.4-4.2,5.4-7.5,4.6l0,0c-3.4-0.8-5.4-4.2-4.6-7.5L12.5,4.8
	c0.8-3.4,4.2-5.4,7.5-4.6l0,0c3.4,0.8,5.4,4.2,4.6,7.5L12.3,59.2z"/>
<path id="XMLID_2_" class="st0" d="M66.7,80.8c-1.6,3.1-5.3,4.3-8.4,2.7l0,0c-3.1-1.6-4.3-5.3-2.7-8.4l19.8-37.9
	c1.6-3.1,5.3-4.3,8.4-2.7l0,0c3.1,1.6,4.3,5.3,2.7,8.4L66.7,80.8z"/>
<path id="XMLID_1_" class="st0" d="M112.3,112.6c-2.2,2.6-6.2,3-8.8,0.8l0,0c-2.7-2.2-3-6.2-0.8-8.8l17.9-21.6
	c2.2-2.6,6.2-3,8.8-0.8l0,0c2.7,2.2,3,6.2,0.8,8.8L112.3,112.6z"/>
</svg>
