<!-- Generator: Adobe Illustrator 19.2.0, SVG Export Plug-In  -->
<svg version="1.1"
	 xmlns="http://www.w3.org/2000/svg" xmlns:xlink="http://www.w3.org/1999/xlink" xmlns:a="http://ns.adobe.com/AdobeSVGViewerExtensions/3.0/"
	 x="0px" y="0px" width="79.6px" height="207.2px" viewBox="0 0 79.6 207.2" style="enable-background:new 0 0 79.6 207.2;"
	 xml:space="preserve">
<style type="text/css">
	.st0{fill:#FF8827;}
	.st1{fill:#FFEF00;}
</style>
<defs>
</defs>
<g>
	<path class="st0" d="M9.8,207.2c0,0,2.1-9.7,10.1-14.9c8.1-5.2,19.3-2.9,26.3-14.6c7-11.7,23.8-0.3,31.7-22.8c0,0-9.5,4.3-21.9,1.8
		c0,0,33.9-32.8,20.3-73.7c0,0-15.1,28.5-26.1,30.5c0,0,11.9-13.7,7.7-30.5c-4.1-16.8,3.2-33,3.2-33S40.8,61.8,37.3,79.5
		c-3.5,17.7-15.4,32-15.4,32s-0.9-7.5,1.9-17c0,0-17.4,13.2-18.4,25.3C4.4,131.8,0,186.9,9.8,207.2z"/>
	<path class="st0" d="M32,58.3c0,0-9.2-13.7-3.5-28.2c0,0,2.2,10.8,5.4,10.8c3.2,0,4.6-9.5-2.1-20.4C25,9.5,31.6,0,31.6,0
		s1.9,10.8,6.7,18.1C43.2,25.3,52.2,46.9,32,58.3z"/>
	<path class="st0" d="M9.5,67.5c0,0-9.2-7.9-9.5-19.3c-0.3-11.4,6.3-21.2,4.8-30.1c0,0,8.1,9.7,5.6,20C7.9,48.5,6,60.5,9.5,67.5z"/>
	<path class="st0" d="M67.8,53.2c0,0-4.1-13.8,4.4-20.2C72.2,33,77.7,45.6,67.8,53.2z"/>
	<path class="st1" d="M50.1,152.3h-9.5c19-10.9,21.5-32.5,21.5-32.5C57,131,31.6,136.9,31.6,136.9c10.1-12,12.4-20,10.9-26.6
		c-1.5-6.7,2.1-18.7,2.1-18.7s-5,5.1-9,17.4c-4,12.4-22,24.4-22,24.4l4.4-13.3c-3.9,0.8-9.6,6.5-13.5,11.1c-1,15.5-2,41,0.9,59.8
		c10.5,3.7,27.2-16.7,27.2-16.7l-5.2-3C37.6,169.8,50.1,152.3,50.1,152.3z"/>
</g>
</svg>
