<!-- Generator: Adobe Illustrator 19.2.0, SVG Export Plug-In  -->
<svg version="1.1"
	 xmlns="http://www.w3.org/2000/svg" xmlns:xlink="http://www.w3.org/1999/xlink" xmlns:a="http://ns.adobe.com/AdobeSVGViewerExtensions/3.0/"
	 x="0px" y="0px" width="78.3px" height="211.5px" viewBox="0 0 78.3 211.5" style="enable-background:new 0 0 78.3 211.5;"
	 xml:space="preserve">
<style type="text/css">
	.st0{fill:#FF8827;}
	.st1{fill:#FFEF00;}
</style>
<defs>
</defs>
<g>
	<path id="XMLID_4_" class="st0" d="M10,121.6c0,0,39.8-28.3,42.3-78.2c0,0,26.7,49-1.6,80.5c0,0,21.6-12.2,25.6-30
		c0,0,16,60.2-40.5,82.7c0,0,17.9-1,28-4.3c0,0-12.5,24.2-36.4,19.3c-13.9-4-17.3,19.9-17.3,19.9V121.6z"/>
	<path id="XMLID_3_" class="st1" d="M10,135.5c0,0,15.3-1.5,30-26.3c0,0-2.4,25.9-12.7,33.4c0,0,18.6,3.8,27.5-5.3
		c0,0-4.7,21.2-30.7,35h8.3c0,0-18.7,7.4-22.4,15.3V135.5z"/>
	<path id="XMLID_2_" class="st0" d="M35.7,70.9c0,0,21.1-27.8,0-70.9l-6.1,35.4l-8.5-10.3C21.1,25.1,20.1,59.1,35.7,70.9z"/>
	<path id="XMLID_1_" class="st0" d="M6.6,73.7c0,0-14.8-27.5,0-47.6C6.6,26.2,17.8,65.1,6.6,73.7z"/>
</g>
</svg>
