<!-- Generator: Adobe Illustrator 19.2.0, SVG Export Plug-In  -->
<svg version="1.1"
	 xmlns="http://www.w3.org/2000/svg" xmlns:xlink="http://www.w3.org/1999/xlink" xmlns:a="http://ns.adobe.com/AdobeSVGViewerExtensions/3.0/"
	 x="0px" y="0px" width="471.7px" height="148.2px" viewBox="0 0 471.7 148.2" style="enable-background:new 0 0 471.7 148.2;"
	 xml:space="preserve">
<style type="text/css">
	.st0{fill:#FFFF38;}
</style>
<defs>
</defs>
<g id="XMLID_1_">
	<path id="XMLID_8_" class="st0" d="M243.9,56.1c0,4.5-3.6,8.1-8.1,8.1l0,0c-4.5,0-8.1-3.6-8.1-8.1v-48c0-4.5,3.6-8.1,8.1-8.1l0,0
		c4.4,0,8.1,3.6,8.1,8.1V56.1z"/>
	<path id="XMLID_7_" class="st0" d="M30.3,134.6c3,3.3,2.7,8.4-0.6,11.4l0,0c-3.3,3-8.4,2.7-11.4-0.6L2.1,128.1
		c-3-3.3-2.7-8.4,0.6-11.4l0,0c3.3-3,8.4-2.7,11.4,0.6L30.3,134.6z"/>
	<path id="XMLID_6_" class="st0" d="M93.5,93.4c2.1,3.9,0.6,8.8-3.4,10.9l0,0c-3.9,2.1-8.8,0.6-10.9-3.4L62.9,69.3
		c-2.1-3.9-0.6-8.8,3.4-10.9l0,0c3.9-2.1,8.8-0.6,10.9,3.4L93.5,93.4z"/>
	<path id="XMLID_5_" class="st0" d="M160.8,68.9c1.1,4.3-1.4,8.7-5.7,9.9l0,0c-4.3,1.1-8.7-1.4-9.9-5.7l-12.5-46.6
		c-1.1-4.3,1.4-8.7,5.7-9.9l0,0c4.3-1.1,8.7,1.4,9.9,5.7L160.8,68.9z"/>
	<path id="XMLID_4_" class="st0" d="M441.3,134.8c-3,3.3-2.7,8.4,0.6,11.4l0,0c3.3,3,8.4,2.7,11.4-0.6l16.3-17.3
		c3-3.3,2.7-8.4-0.6-11.4l0,0c-3.3-3-8.4-2.7-11.4,0.6L441.3,134.8z"/>
	<path id="XMLID_3_" class="st0" d="M378.1,93.6c-2.1,3.9-0.6,8.8,3.4,10.9l0,0c3.9,2.1,8.8,0.6,10.9-3.4l16.4-31.5
		c2.1-3.9,0.6-8.8-3.4-10.9l0,0c-3.9-2.1-8.8-0.6-10.9,3.4L378.1,93.6z"/>
	<path id="XMLID_2_" class="st0" d="M310.8,69.1c-1.1,4.3,1.4,8.7,5.7,9.9l0,0c4.3,1.1,8.7-1.4,9.9-5.7l12.5-46.6
		c1.1-4.3-1.4-8.7-5.7-9.9l0,0c-4.3-1.1-8.7,1.4-9.9,5.7L310.8,69.1z"/>
</g>
</svg>
