<!-- Generator: Adobe Illustrator 19.2.0, SVG Export Plug-In  -->
<svg version="1.1"
	 xmlns="http://www.w3.org/2000/svg" xmlns:xlink="http://www.w3.org/1999/xlink" xmlns:a="http://ns.adobe.com/AdobeSVGViewerExtensions/3.0/"
	 x="0px" y="0px" width="841.8px" height="218.7px" viewBox="0 0 841.8 218.7" style="enable-background:new 0 0 841.8 218.7;"
	 xml:space="preserve">
<style type="text/css">
	.st0{fill:#FFF38A;}
</style>
<defs>
</defs>
<g>
	<path class="st0" d="M178.9,75.9c0,4.3-3.5,7.8-7.8,7.8H62.6c-4.3,0-7.8-3.5-7.8-7.8l0,0c0-4.3,3.5-7.8,7.8-7.8h108.5
		C175.4,68.1,178.9,71.6,178.9,75.9L178.9,75.9z"/>
	<path class="st0" d="M40.1,75.9c0,4.3-3.5,7.8-7.8,7.8H19c-4.3,0-7.8-3.5-7.8-7.8l0,0c0-4.3,3.5-7.8,7.8-7.8h13.4
		C36.6,68.1,40.1,71.6,40.1,75.9L40.1,75.9z"/>
	<path class="st0" d="M118.8,112.4c0,4.3-3.5,7.8-7.8,7.8H97.7c-4.3,0-7.8-3.5-7.8-7.8l0,0c0-4.3,3.5-7.8,7.8-7.8h13.4
		C115.3,104.6,118.8,108.1,118.8,112.4L118.8,112.4z"/>
	<path class="st0" d="M66.6,112.4c0,4.3-3.5,7.8-7.7,7.8H45.5c-4.3,0-7.8-3.5-7.8-7.8l0,0c0-4.3,3.5-7.8,7.8-7.8h13.4
		C63.1,104.6,66.6,108.1,66.6,112.4L66.6,112.4z"/>
	<path class="st0" d="M509.4,25.9c0,4.3-3.5,7.8-7.8,7.8h-13.4c-4.3,0-7.8-3.5-7.8-7.8l0,0c0-4.3,3.5-7.8,7.8-7.8h13.4
		C505.9,18.1,509.4,21.6,509.4,25.9L509.4,25.9z"/>
	<path class="st0" d="M470.3,25.9c0,4.3-3.5,7.8-7.8,7.8h-2.8c-4.3,0-7.8-3.5-7.8-7.8l0,0c0-4.3,3.5-7.8,7.8-7.8h2.8
		C466.8,18.1,470.3,21.6,470.3,25.9L470.3,25.9z"/>
	<path class="st0" d="M253.6,112.4c0,4.3-3.5,7.8-7.8,7.8H137.3c-4.3,0-7.8-3.5-7.8-7.8l0,0c0-4.3,3.5-7.8,7.8-7.8h108.5
		C250.1,104.6,253.6,108.1,253.6,112.4L253.6,112.4z"/>
	<path class="st0" d="M642.1,25.9c0,4.3-3.5,7.8-7.8,7.8H525.8c-4.3,0-7.8-3.5-7.8-7.8l0,0c0-4.3,3.5-7.8,7.8-7.8h108.5
		C638.6,18.1,642.1,21.6,642.1,25.9L642.1,25.9z"/>
	<path class="st0" d="M261.8,183c0,4.3-3.5,7.8-7.8,7.8H145.5c-4.3,0-7.8-3.5-7.8-7.8l0,0c0-4.3,3.5-7.8,7.8-7.8H254
		C258.3,175.3,261.8,178.7,261.8,183L261.8,183z"/>
	<path class="st0" d="M191.6,152c0,2.4-2,4.4-4.4,4.4H71c-2.4,0-4.4-2-4.4-4.4l0,0c0-2.4,2-4.4,4.4-4.4h116.2
		C189.6,147.6,191.6,149.6,191.6,152L191.6,152z"/>
	<path class="st0" d="M54.9,152c0,2.4-2,4.4-4.4,4.4H33.3c-2.4,0-4.4-2-4.4-4.4l0,0c0-2.4,2-4.4,4.4-4.4h17.2
		C52.9,147.6,54.9,149.6,54.9,152L54.9,152z"/>
	<path class="st0" d="M15.2,152c0,2.4-2,4.4-4.4,4.4H4.4c-2.4,0-4.4-2-4.4-4.4l0,0c0-2.4,2-4.4,4.4-4.4h6.4
		C13.2,147.6,15.2,149.6,15.2,152L15.2,152z"/>
	<path class="st0" d="M663,183c0-4.3,3.5-7.8,7.8-7.8h108.5c4.3,0,7.8,3.5,7.8,7.8l0,0c0,4.3-3.5,7.8-7.8,7.8H670.7
		C666.4,190.8,663,187.3,663,183L663,183z"/>
	<path class="st0" d="M801.7,183c0-4.3,3.5-7.8,7.8-7.8h13.4c4.3,0,7.8,3.5,7.8,7.8l0,0c0,4.3-3.5,7.8-7.8,7.8h-13.4
		C805.2,190.8,801.7,187.3,801.7,183L801.7,183z"/>
	<path class="st0" d="M723,146.5c0-4.3,3.5-7.8,7.8-7.8h13.4c4.3,0,7.8,3.5,7.8,7.8l0,0c0,4.3-3.5,7.8-7.8,7.8h-13.4
		C726.5,154.3,723,150.8,723,146.5L723,146.5z"/>
	<path class="st0" d="M775.2,146.5c0-4.3,3.5-7.8,7.8-7.8h13.4c4.3,0,7.8,3.5,7.8,7.8l0,0c0,4.3-3.5,7.8-7.8,7.8H783
		C778.7,154.3,775.2,150.8,775.2,146.5L775.2,146.5z"/>
	<path class="st0" d="M588.3,146.5c0-4.3,3.5-7.8,7.8-7.8h108.5c4.3,0,7.8,3.5,7.8,7.8l0,0c0,4.3-3.5,7.8-7.8,7.8H596
		C591.7,154.3,588.3,150.8,588.3,146.5L588.3,146.5z"/>
	<path class="st0" d="M580.1,75.9c0-4.3,3.5-7.8,7.8-7.8h108.5c4.3,0,7.8,3.5,7.8,7.8l0,0c0,4.3-3.5,7.8-7.8,7.8H587.8
		C583.5,83.6,580.1,80.2,580.1,75.9L580.1,75.9z"/>
	<path class="st0" d="M650.3,106.9c0-2.4,2-4.4,4.4-4.4h116.2c2.4,0,4.4,2,4.4,4.4l0,0c0,2.4-2,4.4-4.4,4.4H654.7
		C652.2,111.3,650.3,109.3,650.3,106.9L650.3,106.9z"/>
	<path class="st0" d="M787,106.9c0-2.4,2-4.4,4.4-4.4h17.2c2.4,0,4.4,2,4.4,4.4l0,0c0,2.4-2,4.4-4.4,4.4h-17.2
		C788.9,111.3,787,109.3,787,106.9L787,106.9z"/>
	<path class="st0" d="M826.6,106.9c0-2.4,2-4.4,4.4-4.4h6.4c2.4,0,4.4,2,4.4,4.4l0,0c0,2.4-2,4.4-4.4,4.4H831
		C828.6,111.3,826.6,109.3,826.6,106.9L826.6,106.9z"/>
	<path class="st0" d="M343.3,4.4c0,2.4-2,4.4-4.4,4.4h-17.2c-2.4,0-4.4-2-4.4-4.4l0,0c0-2.4,2-4.4,4.4-4.4h17.2
		C341.3,0,343.3,2,343.3,4.4L343.3,4.4z"/>
	<path class="st0" d="M303.6,4.4c0,2.4-2,4.4-4.4,4.4h-6.4c-2.4,0-4.4-2-4.4-4.4l0,0c0-2.4,2-4.4,4.4-4.4h6.4
		C301.7,0,303.6,2,303.6,4.4L303.6,4.4z"/>
	<path class="st0" d="M479.8,4.4c0,2.4-2,4.4-4.4,4.4H359.3c-2.4,0-4.4-2-4.4-4.4l0,0c0-2.4,2-4.4,4.4-4.4h116.2
		C477.9,0,479.8,2,479.8,4.4L479.8,4.4z"/>
	<path class="st0" d="M179.8,214.3c0,2.4-2,4.4-4.4,4.4h-66.7c-2.4,0-4.4-2-4.4-4.4l0,0c0-2.4,2-4.4,4.4-4.4h66.7
		C177.9,209.9,179.8,211.8,179.8,214.3L179.8,214.3z"/>
	<path class="st0" d="M380.2,36c0,9.4-7.6,17-17,17H189.7c-9.4,0-17-7.6-17-17l0,0c0-9.4,7.6-17,17-17h173.5
		C372.6,19,380.2,26.6,380.2,36L380.2,36z"/>
	<path class="st0" d="M562.4,85.1c0,9.4-7.6,17-17,17H371.9c-9.4,0-17-7.6-17-17l0,0c0-9.4,7.6-17,17-17h173.5
		C554.7,68.1,562.4,75.7,562.4,85.1L562.4,85.1z"/>
</g>
</svg>
