<!-- Generator: Adobe Illustrator 19.2.0, SVG Export Plug-In  -->
<svg version="1.1"
	 xmlns="http://www.w3.org/2000/svg" xmlns:xlink="http://www.w3.org/1999/xlink" xmlns:a="http://ns.adobe.com/AdobeSVGViewerExtensions/3.0/"
	 x="0px" y="0px" width="579.3px" height="323.5px" viewBox="0 0 579.3 323.5" style="enable-background:new 0 0 579.3 323.5;"
	 xml:space="preserve">
<style type="text/css">
	.st0{fill:#231F20;}
	.st1{fill:#ED3346;}
	.st2{fill:#D73548;}
	.st3{fill:#FFFFFF;stroke:#231F20;stroke-width:0.2233;stroke-miterlimit:10;}
	.st4{fill:#FFFFFF;}
	.st5{fill:#9EA0A3;}
</style>
<defs>
</defs>
<g>
	<rect x="68.5" y="182.5" class="st0" width="503.8" height="74"/>
	<rect x="230" y="121.5" class="st0" width="63" height="146"/>
	<path class="st1" d="M76,34.5l-52,101v132h71.1c0-1-0.1-2-0.1-3c0-35.9,29.1-65,65-65c35.9,0,65,29.1,65,65c0,1,0,2-0.1,3H250v-233
		H76z"/>
	<polygon class="st0" points="24,135.5 51,135.5 86,50.5 67.8,50.5 	"/>
	<polygon class="st0" points="211,49.5 106,49.5 78,135.5 211,135.5 	"/>
	<circle class="st0" cx="160" cy="264.5" r="59"/>
	<circle class="st0" cx="435.3" cy="264.5" r="59"/>
	<circle class="st1" cx="435.3" cy="264.5" r="36.7"/>
	<circle class="st2" cx="435.3" cy="264.5" r="16"/>
	<path class="st1" d="M277,34.5v233h93.6c0-1-0.1-2-0.1-3c0-35.7,29-64.7,64.7-64.7s64.7,29,64.7,64.7c0,1,0,2-0.1,3h79.4v-233H277z
		"/>
	<circle class="st1" cx="160" cy="264.5" r="34"/>
	<circle class="st2" cx="160" cy="264.5" r="16"/>
	<rect y="230.5" class="st0" width="95.1" height="37"/>
	<rect x="368" y="105.5" class="st0" width="211.3" height="45.5"/>
	<polygon class="st0" points="368,105.5 340,105.5 340,70.5 354.5,56 579.3,56 579.3,64.5 368,64.5 	"/>
	<rect x="277" y="105.5" class="st0" width="91" height="16"/>
	<circle class="st3" cx="315.5" cy="190.5" r="15"/>
	<circle class="st3" cx="361.3" cy="190.5" r="15"/>
	<g>
		<path class="st4" d="M57.2,158.9h11.1v4.3h-6.1v6.6h5.8v4.1h-5.8v10.6h-5V158.9z"/>
		<path class="st4" d="M82.9,173.2h-5.8v6.9h6.6v4.3H72.1v-25.6h11.1v4.3h-6.1v5.9h5.8V173.2z"/>
		<path class="st4" d="M91.9,158.9v16.6c0,3.8,1.1,4.9,2.4,4.9c1.4,0,2.5-1,2.5-4.9v-16.6h5v15.8c0,6.6-2.5,10.1-7.4,10.1
			c-5.4,0-7.4-3.7-7.4-10.1v-15.8H91.9z"/>
		<path class="st4" d="M116.8,173.2H111v6.9h6.6v4.3H106v-25.6h11.1v4.3H111v5.9h5.8V173.2z"/>
		<path class="st4" d="M121,159.2c1.6-0.3,3.5-0.5,5.4-0.5c2.7,0,5.2,0.4,6.8,1.9c1.6,1.4,2,3.1,2,5.3c0,2.7-1.3,5.2-3.9,6.4v0.1
			c1.7,0.7,2.6,2.3,3.1,5c0.5,2.8,1.2,6,1.6,6.9h-5.2c-0.3-0.7-0.9-3.3-1.3-6.1c-0.5-3.2-1.3-4.1-2.9-4.1H126v10.2h-5V159.2z
			 M126,170.4h0.9c2.2,0,3.4-1.7,3.4-4c0-2.2-0.9-3.7-3.1-3.8c-0.4,0-0.9,0-1.2,0.2V170.4z"/>
		<path class="st4" d="M141.5,184.4l-4.4-25.6h5.2l1.3,10.2c0.3,2.9,0.6,5.8,0.9,9h0.1c0.3-3.2,0.9-5.9,1.4-9l1.8-10.2h4l1.7,10.1
			c0.5,2.9,0.9,5.7,1.2,9.1h0.1c0.3-3.3,0.6-6.1,1-9l1.3-10.1h4.9l-4.5,25.6h-5.1l-1.5-8.4c-0.4-2.4-0.8-5.3-1.1-8.4h-0.1
			c-0.5,3.1-0.9,5.9-1.4,8.4l-1.7,8.4H141.5z"/>
		<path class="st4" d="M175.4,173.2h-5.8v6.9h6.6v4.3h-11.6v-25.6h11.1v4.3h-6.1v5.9h5.8V173.2z"/>
		<path class="st4" d="M184.5,158.9v10.3h5.2v-10.3h5v25.6h-5v-10.7h-5.2v10.7h-5v-25.6H184.5z"/>
		<path class="st4" d="M199.1,159.2c1.6-0.3,3.5-0.5,5.4-0.5c2.7,0,5.2,0.4,6.8,1.9c1.6,1.4,2,3.1,2,5.3c0,2.7-1.3,5.2-3.9,6.4v0.1
			c1.7,0.7,2.6,2.3,3.1,5c0.5,2.8,1.2,6,1.6,6.9H209c-0.3-0.7-0.9-3.3-1.3-6.1c-0.5-3.2-1.3-4.1-2.9-4.1h-0.7v10.2h-5V159.2z
			 M204.1,170.4h0.9c2.2,0,3.4-1.7,3.4-4c0-2.2-0.9-3.7-3.1-3.8c-0.4,0-0.9,0-1.2,0.2V170.4z"/>
	</g>
	<g>
		<path class="st4" d="M223.1,249H250v-39.5h-55.4C208.7,218.4,219.1,232.4,223.1,249z"/>
		<path class="st4" d="M125.4,209.5H24V249h72.9C100.9,232.4,111.3,218.4,125.4,209.5z"/>
	</g>
	<g>
		<path class="st4" d="M401.2,209.5H277V249h95.4C376.5,232.4,387,218.3,401.2,209.5z"/>
		<path class="st4" d="M498.1,249h81.2v-39.5H469.4C483.5,218.3,494,232.4,498.1,249z"/>
	</g>
	<rect x="406" y="113.5" class="st5" width="173.3" height="22"/>
	<rect x="95.1" y="27.5" class="st0" width="35.9" height="7.5"/>
	<path class="st1" d="M131,27.5V18c0-9.9-8-18-18-18l0,0c-9.9,0-18,8-18,18v9.6H131z"/>
</g>
</svg>
