<!-- Generator: Adobe Illustrator 19.2.0, SVG Export Plug-In  -->
<svg version="1.1"
	 xmlns="http://www.w3.org/2000/svg" xmlns:xlink="http://www.w3.org/1999/xlink" xmlns:a="http://ns.adobe.com/AdobeSVGViewerExtensions/3.0/"
	 x="0px" y="0px" width="82.1px" height="142.1px" viewBox="0 0 82.1 142.1" style="enable-background:new 0 0 82.1 142.1;"
	 xml:space="preserve">
<style type="text/css">
	.st0{fill:#FF8827;}
	.st1{fill:#FFEF00;}
</style>
<defs>
</defs>
<g>
	<path class="st0" d="M9.6,138.4c0,0-14.9-29.3-7.6-48.3c7.3-19,12.7-24.2,7.6-34.5c-5.1-10.2,4.2-18.6,4.2-18.6s-1.2,8.1,4.7,15.2
		c5.9,7.1,8,16.1,4.7,26.7c-3.4,10.6,9.9,22.7,9.9,22.7s5.9-9.6,2.3-21.9C31.8,67.4,37.7,52,47.4,47c0,0-5.3,13.3,4.9,25.4
		c10.2,12.1,10.2,22.4,10.2,22.4s7.1-3.7,5.6-13c-1.6-9.3,3.7-15.8,3.7-15.8s0.6,9.3,5,17.1c4.3,7.8,2.3,22.6-2.9,35.1
		c0,0,4.4-3.4,8.1-7.7c0,0-4.9,29.4-15.3,30.9C56.3,142.6,8.5,142.9,9.6,138.4z"/>
	<path class="st0" d="M19.4,36.9c0,0-5.9-8.7,1.9-18c0,0-1.2,5.3,1.9,11.2c3.1,5.9-2.9,14.3-2.9,14.3S20.9,40.5,19.4,36.9z"/>
	<path class="st0" d="M7.3,18.9c0,0-6.2-8.7,0-18.9C7.3,0,12.9,8.4,7.3,18.9z"/>
	<path class="st0" d="M53.2,57.1c0,0-4-6.2,1.9-12.7c5.9-6.5,5.9-16.1-4-22.7c0,0,12.7,2.8,13.7,15.5c0.9,12.7-8.9,15-7.9,29
		L53.2,57.1z"/>
	<path class="st1" d="M68.5,102.2c-3.1,9.9-14.9,15.5-14.9,15.5s4.3-12.9-2.5-24.1c-6.8-11.2-6-15.4-6-15.4
		c-4.7,9.5-0.4,12.5-1.9,23.2c-1.4,10.6-4.8,13.6-9.4,16.1c-4.7,2.5-12.5-4.3-11.2-9.6c1.4-5.3-8.1-13-8.1-13
		c1.9,5.3-1.6,14-3.1,21.4c-1.2,5.6,4.6,18.7,7.6,25c11.5,1.2,30.7,1.1,41.7,0.5c3.6-5.2,7.3-13.4,7.3-13.4l-3,1.2
		C69.8,120.6,68.5,102.2,68.5,102.2z"/>
	<path class="st1" d="M17.2,73c0,0,0-8.4-3.1-13.7c-3.1-5.3-2.9-9.9-2.9-9.9s1.7,4.3,5,7.4C19.6,59.8,20,67.5,17.2,73z"/>
</g>
</svg>
