<!-- Generator: Adobe Illustrator 19.2.0, SVG Export Plug-In  -->
<svg version="1.1"
	 xmlns="http://www.w3.org/2000/svg" xmlns:xlink="http://www.w3.org/1999/xlink" xmlns:a="http://ns.adobe.com/AdobeSVGViewerExtensions/3.0/"
	 x="0px" y="0px" width="80.9px" height="110.2px" viewBox="0 0 80.9 110.2" style="enable-background:new 0 0 80.9 110.2;"
	 xml:space="preserve">
<style type="text/css">
	.st0{fill:#FF8827;}
	.st1{fill:#FFEF00;}
</style>
<defs>
</defs>
<g>
	<path id="XMLID_4_" class="st0" d="M8.5,110.2c0,0-26-38.3,13-66.1c0,0-4.7,14.2,0,22.4c0,0,31.7-18.4,11.1-57.3
		c0,0,26.6,11.6,31.6,36.7l3.8-15.9c0,0,26.7,41,3.5,76.9c-0.5,0.7-0.5,3.3-0.5,3.3H8.5z"/>
	<path id="XMLID_3_" class="st1" d="M16.7,110.2c0,0-7-13.6,0.2-29.5c0,0,24,19,31.4-25c0,0,6.5,17.1,4.3,27.9
		c-2.2,10.8,11.6-17.1,11.6-17.1s12.3,30.6-7.8,43.7H16.7z"/>
	<path id="XMLID_2_" class="st0" d="M11.2,46.7c0,0-20-27.3-6.2-46.7c0,0,0.4,10.9,8.7,20.1C22,29.2,11.2,46.7,11.2,46.7z"/>
	<path id="XMLID_1_" class="st1" d="M11.2,42.6c0,0-8.6-10.4-6-21C5.2,21.6,15.8,30.8,11.2,42.6z"/>
</g>
</svg>
