<!-- Generator: Adobe Illustrator 19.2.0, SVG Export Plug-In  -->
<svg version="1.1"
	 xmlns="http://www.w3.org/2000/svg" xmlns:xlink="http://www.w3.org/1999/xlink" xmlns:a="http://ns.adobe.com/AdobeSVGViewerExtensions/3.0/"
	 x="0px" y="0px" width="453.8px" height="128.2px" viewBox="0 0 453.8 128.2" style="enable-background:new 0 0 453.8 128.2;"
	 xml:space="preserve">
<style type="text/css">
	.st0{fill:#FFFF38;}
</style>
<defs>
</defs>
<g id="XMLID_1_">
	<path id="XMLID_8_" class="st0" d="M235,36.1c0,4.5-3.6,8.1-8.1,8.1l0,0c-4.5,0-8.1-3.6-8.1-8.1v-28c0-4.5,3.6-8.1,8.1-8.1l0,0
		c4.4,0,8.1,3.6,8.1,8.1V36.1z"/>
	<path id="XMLID_7_" class="st0" d="M21.4,114.6c3,3.3,2.7,8.4-0.6,11.4l0,0c-3.3,3-8.4,2.7-11.4-0.6l-7.4-7.8
		c-3-3.3-2.7-8.4,0.6-11.4l0,0c3.3-3,8.4-2.7,11.4,0.6L21.4,114.6z"/>
	<path id="XMLID_6_" class="st0" d="M152,48.9c1.1,4.3-1.4,8.7-5.7,9.9l0,0c-4.3,1.2-8.7-1.4-9.9-5.7l-7.4-27.2
		c-1.2-4.3,1.4-8.7,5.7-9.9l0,0c4.3-1.2,8.7,1.4,9.9,5.7L152,48.9z"/>
	<path id="XMLID_5_" class="st0" d="M84.6,73.4c2.1,3.9,0.6,8.8-3.4,10.9l0,0c-3.9,2.1-8.8,0.6-10.9-3.4l-8.7-16.6
		c-2.1-3.9-0.6-8.8,3.4-10.9l0,0c3.9-2.1,8.8-0.6,10.9,3.4L84.6,73.4z"/>
	<path id="XMLID_4_" class="st0" d="M432.4,114.8c-3,3.3-2.7,8.4,0.6,11.4l0,0c3.3,3,8.4,2.7,11.4-0.6l7.4-7.8
		c3-3.3,2.7-8.4-0.6-11.4l0,0c-3.3-3-8.4-2.7-11.4,0.6L432.4,114.8z"/>
	<path id="XMLID_3_" class="st0" d="M301.9,49.1c-1.1,4.3,1.4,8.7,5.7,9.9l0,0c4.3,1.2,8.7-1.4,9.9-5.7l7.4-27.2
		c1.2-4.3-1.4-8.7-5.7-9.9l0,0c-4.3-1.2-8.7,1.4-9.9,5.7L301.9,49.1z"/>
	<path id="XMLID_2_" class="st0" d="M369.2,73.6c-2.1,3.9-0.6,8.8,3.4,10.9l0,0c3.9,2.1,8.8,0.6,10.9-3.4l8.7-16.6
		c2.1-3.9,0.6-8.8-3.4-10.9l0,0c-3.9-2.1-8.8-0.6-10.9,3.4L369.2,73.6z"/>
</g>
</svg>
