<!-- Generator: Adobe Illustrator 19.2.0, SVG Export Plug-In  -->
<svg version="1.1"
	 xmlns="http://www.w3.org/2000/svg" xmlns:xlink="http://www.w3.org/1999/xlink" xmlns:a="http://ns.adobe.com/AdobeSVGViewerExtensions/3.0/"
	 x="0px" y="0px" width="439.3px" height="104.2px" viewBox="0 0 439.3 104.2" style="enable-background:new 0 0 439.3 104.2;"
	 xml:space="preserve">
<style type="text/css">
	.st0{fill:#FFFF38;}
</style>
<defs>
</defs>
<g id="XMLID_1_">
	<path id="XMLID_8_" class="st0" d="M227.7,12.1c0,4.5-3.6,8.1-8.1,8.1l0,0c-4.5,0-8.1-3.6-8.1-8.1v-4c0-4.5,3.6-8.1,8.1-8.1l0,0
		c4.4,0,8.1,3.6,8.1,8.1V12.1z"/>
	<path id="XMLID_7_" class="st0" d="M14.1,90.6c3,3.3,2.7,8.4-0.6,11.4l0,0c-3.3,3-8.4,2.7-11.4-0.6l-0.1-0.1
		c-3-3.3-2.7-8.4,0.6-11.4l0,0c3.3-3,8.4-2.7,11.4,0.6L14.1,90.6z"/>
	<path id="XMLID_6_" class="st0" d="M144.7,24.9c1.1,4.3-1.4,8.7-5.7,9.9l0,0c-4.3,1.2-8.7-1.4-9.9-5.7l-1.1-4.1
		c-1.2-4.3,1.4-8.7,5.7-9.9l0,0c4.3-1.2,8.7,1.4,9.9,5.7L144.7,24.9z"/>
	<path id="XMLID_5_" class="st0" d="M77.6,49.7c1.9,4,0.1,8.8-3.9,10.7l0,0c-4,1.9-8.8,0.1-10.7-3.9l-1.7-3.3
		c-1.9-4-0.1-8.8,3.9-10.7l0,0c4-1.9,8.8-0.1,10.7,3.9L77.6,49.7z"/>
	<path id="XMLID_4_" class="st0" d="M425.2,90.8c-3,3.3-2.7,8.4,0.6,11.4l0,0c3.3,3,8.4,2.7,11.4-0.6l0.1-0.1
		c3-3.3,2.7-8.4-0.6-11.4l0,0c-3.3-3-8.4-2.7-11.4,0.6L425.2,90.8z"/>
	<path id="XMLID_3_" class="st0" d="M294.6,25.1c-1.1,4.3,1.4,8.7,5.7,9.9l0,0c4.3,1.2,8.7-1.4,9.9-5.7l1.1-4.1
		c1.2-4.3-1.4-8.7-5.7-9.9l0,0c-4.3-1.2-8.7,1.4-9.9,5.7L294.6,25.1z"/>
	<path id="XMLID_2_" class="st0" d="M361.8,50c-1.9,4-0.1,8.8,3.9,10.7l0,0c4,1.9,8.8,0.1,10.7-3.9l1.7-3.3c1.9-4,0.1-8.8-3.9-10.7
		l0,0c-4-1.9-8.8-0.1-10.7,3.9L361.8,50z"/>
</g>
</svg>
