<!-- Generator: Adobe Illustrator 19.2.0, SVG Export Plug-In  -->
<svg version="1.1"
	 xmlns="http://www.w3.org/2000/svg" xmlns:xlink="http://www.w3.org/1999/xlink" xmlns:a="http://ns.adobe.com/AdobeSVGViewerExtensions/3.0/"
	 x="0px" y="0px" width="34.9px" height="27px" viewBox="0 0 34.9 27" style="enable-background:new 0 0 34.9 27;"
	 xml:space="preserve">
<style type="text/css">
	.st0{fill:#FFFFFF;}
	.st1{fill:#D3D3D3;}
</style>
<defs>
</defs>
<g>
	<path id="XMLID_4_" class="st0" d="M33,18.5c0-0.1,0-0.3,0-0.4c0-3.7-3-6.7-6.7-6.7c-3.7,0-6.7,3-6.7,6.7c0,3.7,3,6.7,6.6,6.7
		c0.8,1.3,2.3,2.2,4,2.2c2.6,0,4.7-2.1,4.7-4.7C34.9,20.7,34.2,19.4,33,18.5z"/>
	<path id="XMLID_3_" class="st1" d="M31.4,24.3c-1.7,0-3.1-0.9-4-2.2c-3.7,0-6.6-3-6.6-6.7c0-0.4,0-0.8,0.1-1.2
		c-0.8,1.1-1.3,2.5-1.3,3.9c0,3.7,3,6.7,6.6,6.7c0.8,1.3,2.3,2.2,4,2.2c2.4,0,4.5-1.9,4.7-4.3C34,23.7,32.8,24.3,31.4,24.3z"/>
</g>
<g>
	<circle id="XMLID_2_" class="st0" cx="5.3" cy="5.3" r="5.3"/>
	<path id="XMLID_1_" class="st1" d="M7.5,8.1c-2.9,0-5.3-2.4-5.3-5.3c0-0.7,0.1-1.4,0.4-2.1C1,1.7,0,3.4,0,5.3
		c0,2.9,2.4,5.3,5.3,5.3c2.2,0,4.1-1.3,4.9-3.3C9.4,7.9,8.5,8.1,7.5,8.1z"/>
</g>
</svg>
