<!-- Generator: Adobe Illustrator 19.2.0, SVG Export Plug-In  -->
<svg version="1.1"
	 xmlns="http://www.w3.org/2000/svg" xmlns:xlink="http://www.w3.org/1999/xlink" xmlns:a="http://ns.adobe.com/AdobeSVGViewerExtensions/3.0/"
	 x="0px" y="0px" width="107.1px" height="103.9px" viewBox="0 0 107.1 103.9" style="enable-background:new 0 0 107.1 103.9;"
	 xml:space="preserve">
<style type="text/css">
	.st0{fill:#FFFFFF;}
	.st1{fill:#D3D3D3;}
</style>
<defs>
</defs>
<g>
	<path id="XMLID_8_" class="st0" d="M23.6,89c0-0.3,0-0.5,0-0.8c0-6.5-5.3-11.8-11.8-11.8C5.3,76.4,0,81.7,0,88.2
		C0,94.7,5.2,100,11.7,100c1.5,2.3,4,3.8,7,3.8c4.6,0,8.3-3.7,8.3-8.3C26.9,92.9,25.6,90.5,23.6,89z"/>
	<path id="XMLID_7_" class="st1" d="M20.7,99.1c-2.9,0-5.5-1.5-7-3.8C7.3,95.2,2,90,2,83.5c0-0.8,0.1-1.5,0.2-2.2
		C0.8,83.2,0,85.6,0,88.2C0,94.7,5.2,100,11.7,100c1.5,2.3,4,3.8,7,3.8c4.3,0,7.9-3.3,8.2-7.5C25.4,98.1,23.2,99.1,20.7,99.1z"/>
</g>
<g>
	<circle id="XMLID_6_" class="st0" cx="24.4" cy="57.1" r="5.3"/>
	<path id="XMLID_5_" class="st1" d="M26.6,59.9c-2.9,0-5.3-2.4-5.3-5.3c0-0.7,0.1-1.4,0.4-2.1c-1.5,0.9-2.6,2.6-2.6,4.6
		c0,2.9,2.4,5.3,5.3,5.3c2.2,0,4.1-1.3,4.9-3.3C28.5,59.6,27.6,59.9,26.6,59.9z"/>
</g>
<g>
	<circle id="XMLID_4_" class="st0" cx="17.1" cy="21.5" r="9.7"/>
	<path id="XMLID_3_" class="st1" d="M21.1,26.6c-5.4,0-9.7-4.4-9.7-9.7c0-1.3,0.3-2.6,0.8-3.8c-2.8,1.7-4.7,4.8-4.7,8.3
		c0,5.4,4.4,9.7,9.7,9.7c4,0,7.5-2.5,9-6C24.6,26.1,22.9,26.6,21.1,26.6z"/>
</g>
<g>
	<path id="XMLID_2_" class="st0" d="M94,8.2c-1.4,0-2.8,0.2-4.1,0.7C87.6,3.7,82.4,0,76.4,0c-8.1,0-14.7,6.6-14.7,14.7
		c0,1.9,0.4,3.7,1,5.4c-1.3,1.5-2.1,3.5-2.1,5.6c0,3.6,2.2,6.7,5.3,8c1.4,6.1,6.8,10.6,13.3,10.6c6.3,0,11.6-4.3,13.2-10.1
		c0.5,0.1,1.1,0.1,1.7,0.1c7.2,0,13.1-5.9,13.1-13.1C107.1,14.1,101.2,8.2,94,8.2z"/>
	<path id="XMLID_1_" class="st1" d="M92.3,34.3c0.5,0.1,1.1,0.1,1.7,0.1c2.2,0,4.3-0.6,6.2-1.6c-5.3-2.5-10.3-8.2-16.3-3.5
		c-9.8,7.6-12.3,0-12.3,0C66.8,24.9,70,17.1,70,17.1C65.7,11.4,68.1,5.2,71.1,1c-5.5,2.1-9.4,7.5-9.4,13.7c0,1.9,0.4,3.7,1,5.4
		c-1.3,1.5-2.1,3.5-2.1,5.6c0,3.6,2.2,6.7,5.3,8c1.4,6.1,6.8,10.6,13.3,10.6C85.5,44.3,90.8,40.1,92.3,34.3z"/>
</g>
</svg>
