<!-- Generator: Adobe Illustrator 19.2.0, SVG Export Plug-In  -->
<svg version="1.1"
	 xmlns="http://www.w3.org/2000/svg" xmlns:xlink="http://www.w3.org/1999/xlink" xmlns:a="http://ns.adobe.com/AdobeSVGViewerExtensions/3.0/"
	 x="0px" y="0px" width="563.1px" height="626.8px" viewBox="0 0 563.1 626.8" style="enable-background:new 0 0 563.1 626.8;"
	 xml:space="preserve">
<style type="text/css">
	.st0{fill:#FFEB00;}
	.st1{fill:#DDC328;}
	.st2{fill:#D6AE90;}
	.st3{opacity:0.15;}
	.st4{fill:#F2C5A0;}
	.st5{fill:#231F20;}
	.st6{fill:none;stroke:#5C5A5A;stroke-width:1.7818;stroke-linecap:round;stroke-miterlimit:10;}
	.st7{fill:none;stroke:#BA6638;stroke-width:2.6727;stroke-linecap:round;stroke-miterlimit:10;}
	.st8{fill:none;stroke:#BA6638;stroke-width:1.7818;stroke-linecap:round;stroke-miterlimit:10;}
	.st9{fill:#3D3D3D;}
	.st10{fill:#FFF8C2;}
	.st11{fill:#D8D8D8;}
	.st12{fill:#9B9B9B;}
	.st13{fill:#B7B7B7;}
	.st14{fill:#969696;}
	.st15{fill:#FFEA80;}
	.st16{fill:#3EDDDD;stroke:#9B9889;stroke-width:5.2161;stroke-miterlimit:10;}
	.st17{fill:#8E8E8E;}
</style>
<defs>
</defs>
<g id="XMLID_13_">
	<g id="XMLID_17_">
		<path id="XMLID_33_" class="st0" d="M372,230.5c1,9.5-6.3,17.6-16.4,17.6h-58c-10.1,0-17.4-8-16.4-17.6L291,141
			c0.6-5.6,7.1-10.1,14.5-10.1h42.3c7.4,0,13.8,4.4,14.5,10.1L372,230.5z"/>
		<path id="XMLID_32_" class="st1" d="M362.3,141c-0.6-5.6-7.1-10.1-14.5-10.1h-42.3c-2.8,0-5.4,0.6-7.7,1.7
			c13.6,6.6,58.7,34.3,65,113.9c6.2-2.8,10-9,9.2-16.1L362.3,141z"/>
		<path id="XMLID_31_" class="st2" d="M334,136.1c0,0-2.3,3.4-7.6,3.4c-5.3,0-7.1-3.4-7.1-3.4v-23.6H334V136.1z"/>
		<path id="XMLID_30_" class="st3" d="M326.2,139.5c0.1,0,0.2,0,0.3,0c5.3,0,7.6-3.4,7.6-3.4v-23.6h-7.8V139.5z"/>
		<path id="XMLID_29_" class="st2" d="M368.5,83.8c0,2.4-2,4.4-4.4,4.4h-6.2c-2.4,0-4.4-2-4.4-4.4V69.8c0-2.4,2-4.4,4.4-4.4h6.2
			c2.4,0,4.4,2,4.4,4.4V83.8z"/>
		<path id="XMLID_28_" class="st4" d="M299,83.8c0,2.4-2,4.4-4.4,4.4h-6.2c-2.4,0-4.4-2-4.4-4.4V69.8c0-2.4,2-4.4,4.4-4.4h6.2
			c2.4,0,4.4,2,4.4,4.4V83.8z"/>
		<path id="XMLID_27_" class="st4" d="M361.1,93.3c0,17.5-14.2,31.7-31.7,31.7h-9.7c-17.5,0-31.7-14.2-31.7-31.7V44.3
			c0-17.5,14.2-31.7,31.7-31.7h9.7c17.5,0,31.7,14.2,31.7,31.7V93.3z"/>
		<g id="XMLID_24_">
			<circle id="XMLID_26_" class="st5" cx="304.7" cy="71" r="2.7"/>
			<circle id="XMLID_25_" class="st5" cx="329.3" cy="71" r="2.7"/>
		</g>
		<path id="XMLID_23_" class="st6" d="M328.4,60c0,0,6.1-1.2,8.9,4.2"/>
		<path id="XMLID_22_" class="st6" d="M306.5,60c0,0-6.1-1.2-8.9,4.2"/>
		<path id="XMLID_21_" class="st7" d="M315.4,104c0,0,12,4.7,22.4-0.4"/>
		<path id="XMLID_20_" class="st8" d="M322,113.5c0,0,5.1,1,8.6,0"/>
		<path id="XMLID_19_" class="st3" d="M329.4,12.7h-8.2c-0.6,0-1.3,0-1.9,0.1l-4.8,79.9l11.3-0.5l0.3,32.9h3.3
			c17.5,0,31.7-14.2,31.7-31.7V44.3C361.1,26.8,346.9,12.7,329.4,12.7z"/>
		<path id="XMLID_18_" class="st9" d="M297.6,43.7c0,0,61.4-1.4,63.4,33.1l2.4-33.2l-75.3-5.8v27.7
			C288.1,65.6,290.1,48.1,297.6,43.7z"/>
	</g>
	<path id="XMLID_16_" class="st0" d="M365.5,44.5c-0.5-19.8-13.4-36.3-30.7-41V0h-20.3v3.4c-17.4,4.7-30.3,21.2-30.8,41l-4.4,7.2
		h90.9L365.5,44.5z"/>
	<path id="XMLID_15_" class="st1" d="M365.5,44.5c-0.5-19.8-13.4-36.3-30.7-41v28.6c0,0,21.6-4.8,25.5,19.6h9.7L365.5,44.5z"/>
	<path id="XMLID_14_" class="st10" d="M302,9.3c11.7-0.5,12.4,16.5,12.4,16.5V3.4C310,4.6,305.8,6.6,302,9.3z"/>
</g>
<path id="XMLID_12_" class="st11" d="M563.1,246.8c0,18.7-15.2,33.9-33.9,33.9H127.6c-18.7,0-33.9-15.2-33.9-33.9l0,0
	c0-18.7,15.2-33.9,33.9-33.9h401.6C547.9,212.9,563.1,228.1,563.1,246.8L563.1,246.8z"/>
<path id="XMLID_11_" class="st12" d="M127.6,223.3h401.6c17,0,31,12.4,33.5,28.7c0.3-1.7,0.4-3.4,0.4-5.2
	c0-18.7-15.2-33.9-33.9-33.9H127.6c-18.7,0-33.9,15.2-33.9,33.9c0,1.8,0.1,3.5,0.4,5.2C96.6,235.8,110.6,223.3,127.6,223.3z"/>
<g id="XMLID_8_">
	<path id="XMLID_10_" class="st13" d="M209.3,619.8c0,3.8,3.1,7,7,7h271.2c3.8,0,7-3.1,7-7V291.4c0-3.8-3.1-7-7-7H216.3
		c-3.8,0-7,3.1-7,7V619.8z"/>
	<path id="XMLID_9_" class="st14" d="M487.5,284.4H216.3c-3.8,0-7,3.1-7,7v21.7h285.1v-21.7C494.5,287.5,491.3,284.4,487.5,284.4z"
		/>
</g>
<g id="XMLID_5_">
	<path id="XMLID_7_" class="st14" d="M229.5,83.6h-13.7v-53c0-3.8-3.1-7-7-7H7c-3.8,0-7,3.1-7,7v589.2c0,3.8,3.1,7,7,7h201.9
		c3.8,0,7-3.1,7-7V339.6h13.7c3.8,0,7-3.1,7-7V90.6C236.5,86.7,233.3,83.6,229.5,83.6z"/>
	<rect id="XMLID_6_" x="215.8" y="83.6" class="st12" width="10.9" height="256"/>
</g>
<path id="XMLID_4_" class="st15" d="M27.6,209.7c0,3.8,3.1,7,7,7h135.6c3.8,0,7-3.1,7-7V79.4c0-3.8-3.1-7-7-7H34.6c-3.8,0-7,3.1-7,7
	V209.7z"/>
<path id="XMLID_3_" class="st16" d="M165.8,161.1c0,3.8-3.1,7-7,7H88.5c-3.8,0-7-3.1-7-7v-58.2c0-3.8,3.1-7,7-7h70.4
	c3.8,0,7,3.1,7,7V161.1z"/>
<path id="XMLID_2_" class="st17" d="M145.6,189.1c0,1,0.8,1.7,1.7,1.7h13.3c1,0,1.7-0.8,1.7-1.7v-4.3c0-1-0.8-1.7-1.7-1.7h-13.3
	c-1,0-1.7,0.8-1.7,1.7V189.1z"/>
<path id="XMLID_1_" class="st17" d="M118.2,189.1c0,1,0.8,1.7,1.7,1.7h13.3c1,0,1.7-0.8,1.7-1.7v-4.3c0-1-0.8-1.7-1.7-1.7H120
	c-1,0-1.7,0.8-1.7,1.7V189.1z"/>
</svg>
