<!-- Generator: Adobe Illustrator 19.2.0, SVG Export Plug-In  -->
<svg version="1.1"
	 xmlns="http://www.w3.org/2000/svg" xmlns:xlink="http://www.w3.org/1999/xlink" xmlns:a="http://ns.adobe.com/AdobeSVGViewerExtensions/3.0/"
	 x="0px" y="0px" width="573.9px" height="709px" viewBox="0 0 573.9 709" style="enable-background:new 0 0 573.9 709;"
	 xml:space="preserve">
<style type="text/css">
	.st0{fill:#DDC328;}
	.st1{fill:#FFEB00;}
	.st2{fill:#D6AE90;}
	.st3{opacity:0.15;}
	.st4{fill:#F2C5A0;}
	.st5{fill:#231F20;}
	.st6{fill:none;stroke:#5C5A5A;stroke-width:2.0496;stroke-linecap:round;stroke-miterlimit:10;}
	.st7{fill:#3D3D3D;}
	.st8{fill:#515151;stroke:#A57963;stroke-linecap:round;stroke-miterlimit:10;}
	.st9{fill:#FFFFFF;}
	.st10{fill:#D1D1D1;}
	.st11{fill:#FFF8C2;}
	.st12{fill:#606060;}
	.st13{fill:#D8D8D8;}
	.st14{fill:#9B9B9B;}
	.st15{fill:#B7B7B7;}
	.st16{fill:#969696;}
	.st17{fill:#FFEA80;}
	.st18{fill:#3EDDDD;stroke:#9B9889;stroke-width:5.3162;stroke-miterlimit:10;}
	.st19{fill:#8E8E8E;}
</style>
<defs>
</defs>
<g id="XMLID_14_">
	<g id="XMLID_18_">
		<polygon id="XMLID_41_" class="st0" points="519.3,290.9 535.5,406.6 497.1,414.7 485.8,327.9 461,324.6 456.2,414.7 422.2,409.9 
			436.3,276.4 		"/>
		<path id="XMLID_40_" class="st1" d="M532.9,274.5c-0.6,11-10.5,18.7-22,16.8l-65.8-11.1c-11.5-1.9-18.2-12.5-15.2-23.1l28.2-99.7
			c1.8-6.3,10-10.1,18.3-8.6l48,8.1c8.4,1.4,14.9,7.7,14.5,14.2L532.9,274.5z"/>
		<path id="XMLID_39_" class="st0" d="M539,171c0.4-6.5-6.1-12.8-14.5-14.2l-48-8.1c-3.1-0.5-6.3-0.3-9,0.5
			c14.2,10.1,60,50.1,51.9,141.7c7.5-1.9,13.1-8.3,13.5-16.5L539,171z"/>
		<path id="XMLID_38_" class="st2" d="M507.9,160.1c0,0-3.2,3.4-9.2,2.4c-6-1-7.5-5.2-7.5-5.2l4.5-26.8l16.7,2.8L507.9,160.1z"/>
		<path id="XMLID_37_" class="st3" d="M498.4,162.4c0.1,0,0.2,0,0.3,0.1c6,1,9.2-2.4,9.2-2.4l4.5-26.8l-8.9-1.5L498.4,162.4z"/>
		<path id="XMLID_36_" class="st2" d="M557,107.3c-0.5,2.8-3.1,4.6-5.8,4.2l-7.1-1.2c-2.8-0.5-4.6-3.1-4.2-5.8l2.7-15.8
			c0.5-2.8,3.1-4.6,5.8-4.2l7.1,1.2c2.8,0.5,4.6,3.1,4.1,5.8L557,107.3z"/>
		<path id="XMLID_35_" class="st4" d="M478.1,94c-0.5,2.8-3.1,4.6-5.8,4.2l-7.1-1.2c-2.8-0.5-4.6-3.1-4.2-5.8l2.7-15.8
			c0.5-2.8,3.1-4.6,5.8-4.2l7.1,1.2c2.8,0.5,4.6,3.1,4.1,5.8L478.1,94z"/>
		<path id="XMLID_34_" class="st4" d="M546.8,116.7c-3.3,19.8-22.1,33.2-42,29.8l-11-1.9c-19.8-3.3-33.2-22.1-29.8-42l9.4-55.5
			c3.3-19.8,22.1-33.2,42-29.8l11,1.9c19.8,3.3,33.2,22.1,29.8,42L546.8,116.7z"/>
		<g id="XMLID_31_">
			
				<ellipse id="XMLID_33_" transform="matrix(0.1665 -0.986 0.986 0.1665 326.5374 547.4323)" class="st5" cx="487.1" cy="80.6" rx="3.1" ry="3.1"/>
			
				<ellipse id="XMLID_32_" transform="matrix(0.1665 -0.986 0.986 0.1665 345.1803 578.9149)" class="st5" cx="515" cy="85.3" rx="3.1" ry="3.1"/>
		</g>
		<path id="XMLID_30_" class="st6" d="M516,72.7c0,0,7.2-0.2,9.3,6.4"/>
		<path id="XMLID_29_" class="st6" d="M491.2,68.5c0,0-6.7-2.5-10.9,3"/>
		<path id="XMLID_28_" class="st3" d="M526.3,19.2l-9.3-1.6c-0.7-0.1-1.4-0.2-2.1-0.3L494.1,107l12.9,1.6l-5.9,37.3l3.7,0.6
			c19.8,3.3,38.6-10,42-29.8l9.4-55.5C559.5,41.3,546.1,22.5,526.3,19.2z"/>
		<path id="XMLID_27_" class="st7" d="M484.3,48.2c0,0,69.9,10.1,65.5,49.7l9.1-37.1l-84.3-21l-5.3,31.4
			C469.3,71.3,474.9,51.9,484.3,48.2z"/>
		<path id="XMLID_26_" class="st8" d="M490.5,113.2c0,0,22.2,3.8,20.8,20.2l-20.3-5.1C491,128.3,498.2,123.3,490.5,113.2z"/>
		<path id="XMLID_25_" class="st9" d="M492.6,114.6c0,0-2.5,5.4-0.9,6.8c1.7,1.4,12.3,3.7,12.3,3.7l0.8-4.6
			C504.9,120.5,501.3,117.3,492.6,114.6z"/>
		<path id="XMLID_24_" class="st10" d="M492.6,114.6c0,0-0.2,0.5-0.5,1.2c8.5,2.7,11.7,5.7,11.7,5.7l-0.6,3.4
			c0.3,0.1,0.9,0.2,0.9,0.2l0.8-4.6C504.9,120.5,501.3,117.3,492.6,114.6z"/>
		<line id="XMLID_23_" class="st8" x1="495.2" y1="135.9" x2="504.9" y2="138.9"/>
		<path id="XMLID_22_" class="st0" d="M535.6,162.6c0,0,29.2,91.7,25.8,95.8c-3.5,4.1-77.4,0-77.4,0l3.1-27.9l47.8,4.7l-0.7-38.7
			L535.6,162.6z"/>
		<polygon id="XMLID_21_" class="st4" points="487.1,230.6 473.5,211.4 456.9,199.9 447.5,223.9 463.5,238 484.4,254.1 		"/>
		<polygon id="XMLID_20_" class="st1" points="461,152.8 413.3,211.4 363.5,238 370.2,260.3 420.9,242.6 450.2,206.5 		"/>
		<polygon id="XMLID_19_" class="st4" points="364.5,241.2 334.2,241.2 322.9,267.9 337.5,276.4 343.7,263.3 363.5,263.6 
			369.7,258.8 		"/>
	</g>
	<path id="XMLID_17_" class="st1" d="M561.2,62.1c3.2-22.5-8.3-43.7-27-52.4l0.7-3.9l-23.1-3.9l-0.7,3.9
		c-20.6,2-38.4,18.3-42.8,40.6l-6.4,7.3l103.1,17.4L561.2,62.1z"/>
	<path id="XMLID_16_" class="st0" d="M561.2,62.1c3.2-22.5-8.3-43.7-27-52.4l-5.5,32.5c0,0,25.4-1.4,25.2,27.1l11.1,1.9L561.2,62.1z
		"/>
	<path id="XMLID_15_" class="st11" d="M495.9,10.1c13.4,1.7,10.9,21.1,10.9,21.1l4.3-25.4C505.8,6.3,500.6,7.8,495.9,10.1z"/>
</g>
<path id="XMLID_13_" class="st12" d="M200,303.9c0,0-44.4-62.4,40.1-148.1C324.6,70.2,259.2,0,259.2,0s56.7,23.9,61,108
	c4.3,84.1,55.3,68.7,59.9-5.8c0,0,43.6,11.9,58.5,61.1c14.9,49.2,36.2,116.8-47.1,162.9C308.1,372.3,218.7,334.3,200,303.9z"/>
<path id="XMLID_12_" class="st13" d="M573.9,299c0,19.1-15.5,34.6-34.6,34.6H130c-19.1,0-34.6-15.5-34.6-34.6l0,0
	c0-19.1,15.5-34.6,34.6-34.6h409.3C558.5,264.4,573.9,279.9,573.9,299L573.9,299z"/>
<path id="XMLID_11_" class="st14" d="M130,275h409.3c17.3,0,31.6,12.7,34.1,29.2c0.3-1.7,0.4-3.5,0.4-5.3
	c0-19.1-15.5-34.6-34.6-34.6H130c-19.1,0-34.6,15.5-34.6,34.6c0,1.8,0.1,3.6,0.4,5.3C98.4,287.7,112.8,275,130,275z"/>
<g id="XMLID_8_">
	<path id="XMLID_10_" class="st15" d="M213.3,701.9c0,3.9,3.2,7.1,7.1,7.1h276.4c3.9,0,7.1-3.2,7.1-7.1V344.4c0-3.9-3.2-7.1-7.1-7.1
		H220.4c-3.9,0-7.1,3.2-7.1,7.1V701.9z"/>
	<path id="XMLID_9_" class="st16" d="M496.8,337.3H220.4c-3.9,0-7.1,3.2-7.1,7.1v22.2h290.6v-22.2
		C503.9,340.5,500.8,337.3,496.8,337.3z"/>
</g>
<g id="XMLID_5_">
	<path id="XMLID_7_" class="st16" d="M233.9,132.6h-14v-54c0-3.9-3.2-7.1-7.1-7.1H7.1c-3.9,0-7.1,3.2-7.1,7.1v623.4
		c0,3.9,3.2,7.1,7.1,7.1h205.8c3.9,0,7.1-3.2,7.1-7.1V393.6h14c3.9,0,7.1-3.2,7.1-7.1V139.7C241,135.8,237.8,132.6,233.9,132.6z"/>
	<rect id="XMLID_6_" x="220" y="132.6" class="st14" width="11.1" height="260.9"/>
</g>
<path id="XMLID_4_" class="st17" d="M28.1,261.1c0,3.9,3.2,7.1,7.1,7.1h138.2c3.9,0,7.1-3.2,7.1-7.1V128.3c0-3.9-3.2-7.1-7.1-7.1
	H35.2c-3.9,0-7.1,3.2-7.1,7.1V261.1z"/>
<path id="XMLID_3_" class="st18" d="M169,211.6c0,3.9-3.2,7.1-7.1,7.1H90.2c-3.9,0-7.1-3.2-7.1-7.1v-59.4c0-3.9,3.2-7.1,7.1-7.1
	h71.8c3.9,0,7.1,3.2,7.1,7.1V211.6z"/>
<path id="XMLID_2_" class="st19" d="M148.3,240.1c0,1,0.8,1.8,1.8,1.8h13.6c1,0,1.8-0.8,1.8-1.8v-4.4c0-1-0.8-1.8-1.8-1.8h-13.6
	c-1,0-1.8,0.8-1.8,1.8V240.1z"/>
<path id="XMLID_1_" class="st19" d="M120.5,240.1c0,1,0.8,1.8,1.8,1.8h13.6c1,0,1.8-0.8,1.8-1.8v-4.4c0-1-0.8-1.8-1.8-1.8h-13.6
	c-1,0-1.8,0.8-1.8,1.8V240.1z"/>
</svg>
