<!-- Generator: Adobe Illustrator 19.2.0, SVG Export Plug-In  -->
<svg version="1.1"
	 xmlns="http://www.w3.org/2000/svg" xmlns:xlink="http://www.w3.org/1999/xlink" xmlns:a="http://ns.adobe.com/AdobeSVGViewerExtensions/3.0/"
	 x="0px" y="0px" width="579.3px" height="233px" viewBox="0 0 579.3 233" style="enable-background:new 0 0 579.3 233;"
	 xml:space="preserve">
<style type="text/css">
	.st0{fill:#231F20;}
	.st1{fill:#ED3346;}
	.st2{fill:#FFFFFF;stroke:#231F20;stroke-width:0.2233;stroke-miterlimit:10;}
	.st3{fill:#FFFFFF;}
	.st4{fill:#9EA0A3;}
</style>
<defs>
</defs>
<rect id="XMLID_56_" x="68.5" y="148" class="st0" width="503.8" height="74"/>
<rect id="XMLID_55_" x="230" y="87" class="st0" width="63" height="146"/>
<path id="XMLID_54_" class="st1" d="M76,0L24,101v132h71.1c0-1-0.1-2-0.1-3c0-35.9,29.1-65,65-65c35.9,0,65,29.1,65,65
	c0,1,0,2-0.1,3H250V0H76z"/>
<polygon id="XMLID_53_" class="st0" points="24,101 51,101 86,16 67.8,16 "/>
<polygon id="XMLID_52_" class="st0" points="211,15 106,15 78,101 211,101 "/>
<path id="XMLID_51_" class="st1" d="M277,0v233h93.6c0-1-0.1-2-0.1-3c0-35.7,29-64.7,64.7-64.7s64.7,29,64.7,64.7c0,1,0,2-0.1,3
	h79.4V0H277z"/>
<rect id="XMLID_50_" y="196" class="st0" width="95.1" height="37"/>
<rect id="XMLID_49_" x="368" y="71" class="st0" width="211.3" height="45.5"/>
<polygon id="XMLID_48_" class="st0" points="368,71 340,71 340,36 354.5,21.5 579.3,21.5 579.3,30 368,30 "/>
<rect id="XMLID_47_" x="277" y="71" class="st0" width="91" height="16"/>
<circle id="XMLID_46_" class="st2" cx="315.5" cy="156" r="15"/>
<circle id="XMLID_45_" class="st2" cx="361.3" cy="156" r="15"/>
<g id="XMLID_24_">
	<path id="XMLID_43_" class="st3" d="M57.2,124.3h11.1v4.3h-6.1v6.6h5.8v4.1h-5.8v10.6h-5V124.3z"/>
	<path id="XMLID_41_" class="st3" d="M82.9,138.7h-5.8v6.9h6.6v4.3H72.1v-25.6h11.1v4.3h-6.1v5.9h5.8V138.7z"/>
	<path id="XMLID_39_" class="st3" d="M91.9,124.3V141c0,3.8,1.1,4.9,2.4,4.9c1.4,0,2.5-1,2.5-4.9v-16.6h5v15.8
		c0,6.6-2.5,10.1-7.4,10.1c-5.4,0-7.4-3.7-7.4-10.1v-15.8H91.9z"/>
	<path id="XMLID_37_" class="st3" d="M116.8,138.7H111v6.9h6.6v4.3H106v-25.6h11.1v4.3H111v5.9h5.8V138.7z"/>
	<path id="XMLID_34_" class="st3" d="M121,124.7c1.6-0.3,3.5-0.5,5.4-0.5c2.7,0,5.2,0.4,6.8,1.9c1.6,1.4,2,3.1,2,5.3
		c0,2.7-1.3,5.2-3.9,6.4v0.1c1.7,0.7,2.6,2.3,3.1,5c0.5,2.8,1.2,6,1.6,6.9h-5.2c-0.3-0.7-0.9-3.3-1.3-6.1c-0.5-3.2-1.3-4.1-2.9-4.1
		H126v10.2h-5V124.7z M126,135.9h0.9c2.2,0,3.4-1.7,3.4-4c0-2.2-0.9-3.7-3.1-3.8c-0.4,0-0.9,0-1.2,0.2V135.9z"/>
	<path id="XMLID_32_" class="st3" d="M141.5,149.9l-4.4-25.6h5.2l1.3,10.2c0.3,2.9,0.6,5.8,0.9,9h0.1c0.3-3.2,0.9-5.9,1.4-9
		l1.8-10.2h4l1.7,10.1c0.5,2.9,0.9,5.7,1.2,9.1h0.1c0.3-3.3,0.6-6.1,1-9l1.3-10.1h4.9l-4.5,25.6h-5.1l-1.5-8.4
		c-0.4-2.4-0.8-5.3-1.1-8.4h-0.1c-0.5,3.1-0.9,5.9-1.4,8.4l-1.7,8.4H141.5z"/>
	<path id="XMLID_30_" class="st3" d="M175.4,138.7h-5.8v6.9h6.6v4.3h-11.6v-25.6h11.1v4.3h-6.1v5.9h5.8V138.7z"/>
	<path id="XMLID_28_" class="st3" d="M184.5,124.3v10.3h5.2v-10.3h5v25.6h-5v-10.7h-5.2v10.7h-5v-25.6H184.5z"/>
	<path id="XMLID_25_" class="st3" d="M199.1,124.7c1.6-0.3,3.5-0.5,5.4-0.5c2.7,0,5.2,0.4,6.8,1.9c1.6,1.4,2,3.1,2,5.3
		c0,2.7-1.3,5.2-3.9,6.4v0.1c1.7,0.7,2.6,2.3,3.1,5c0.5,2.8,1.2,6,1.6,6.9H209c-0.3-0.7-0.9-3.3-1.3-6.1c-0.5-3.2-1.3-4.1-2.9-4.1
		h-0.7v10.2h-5V124.7z M204.1,135.9h0.9c2.2,0,3.4-1.7,3.4-4c0-2.2-0.9-3.7-3.1-3.8c-0.4,0-0.9,0-1.2,0.2V135.9z"/>
</g>
<g id="XMLID_21_">
	<path id="XMLID_23_" class="st3" d="M223.1,214.5H250V175h-55.4C208.7,183.9,219.1,197.9,223.1,214.5z"/>
	<path id="XMLID_22_" class="st3" d="M125.4,175H24v39.5h72.9C100.9,197.9,111.3,183.9,125.4,175z"/>
</g>
<g id="XMLID_2_">
	<path id="XMLID_4_" class="st3" d="M401.2,175H277v39.5h95.4C376.5,197.9,387,183.8,401.2,175z"/>
	<path id="XMLID_3_" class="st3" d="M498.1,214.5h81.2V175H469.4C483.5,183.8,494,197.9,498.1,214.5z"/>
</g>
<rect id="XMLID_1_" x="406" y="79" class="st4" width="173.3" height="22"/>
</svg>
